<svg xmlns="http://www.w3.org/2000/svg" xmlns:xlink="http://www.w3.org/1999/xlink" version="1.1" width="1000" height="1000" viewBox="0 0 1000 1000" xml:space="preserve">
<desc>Created with Fabric.js 3.5.0</desc>
<defs>
</defs>
<rect x="0" y="0" width="100%" height="100%" fill="#ffffff"/>
<g transform="matrix(0.3074 0 0 0.3074 465.0269 449.2122)" id="666907">
<g style="" vector-effect="non-scaling-stroke">
		<g transform="matrix(0.1333 0 0 -0.1333 -26.1055 -123.1031)">
<path style="stroke: none; stroke-width: 1; stroke-dasharray: none; stroke-linecap: butt; stroke-dashoffset: 0; stroke-linejoin: miter; stroke-miterlimit: 4; is-custom-font: none; font-file-url: none; fill: rgb(0,0,0); fill-rule: nonzero; opacity: 1;" transform=" translate(-3644.5898, -3362.9876)" d="M 3643 4485 c -536 -112 -944 -345 -1199 -684 c -221 -295 -339 -728 -320 -1171 c 6 -151 34 -400 45 -411 c 3 -4 89 40 191 97 c 228 129 726 377 958 478 c 362 159 846 338 1196 442 c 59 17 85 29 78 36 c -25 25 -945 -162 -1756 -358 c -148 -36 -271 -63 -273 -60 c -14 13 132 201 252 325 c 343 355 787 596 1335 725 c 263 63 611 89 874 67 c 76 -6 140 -10 143 -8 c 8 8 -273 96 -372 117 c -130 27 -355 36 -500 21 c -145 -16 -322 -51 -529 -107 c -92 -25 -170 -43 -172 -41 c -6 6 235 100 336 132 c 201 63 398 98 640 115 c 85 6 156 12 157 14 c 2 2 -55 9 -128 16 c -180 17 -480 8 -613 -19 c -134 -28 -279 -74 -400 -127 c -55 -24 -101 -42 -103 -40 c -2 1 54 30 124 63 c 214 102 448 169 815 234 l 163 28 l -215 -3 c -300 -5 -511 -45 -857 -163 c -78 -27 -139 -45 -137 -41 c 12 19 211 110 321 147 c 112 38 514 141 547 141 c 9 0 16 4 16 9 c 0 14 -150 20 -260 10 c -144 -13 -305 -51 -489 -114 c -86 -30 -157 -52 -159 -50 c -5 5 111 73 174 102 c 33 14 106 43 164 64 c 121 44 110 47 -47 14 z" stroke-linecap="round"/>
</g>
		<g transform="matrix(0.1333 0 0 -0.1333 45.8538 10.6687)">
<path style="stroke: none; stroke-width: 1; stroke-dasharray: none; stroke-linecap: butt; stroke-dashoffset: 0; stroke-linejoin: miter; stroke-miterlimit: 4; is-custom-font: none; font-file-url: none; fill: rgb(0,0,0); fill-rule: nonzero; opacity: 1;" transform=" translate(-4184.2848, -2359.625)" d="M 4640 3785 c 286 -48 538 -203 674 -413 c 172 -265 145 -581 -73 -869 c -138 -182 -500 -491 -761 -648 c -439 -264 -879 -372 -1594 -391 c -169 -5 -242 -10 -225 -16 c 74 -28 279 -82 377 -99 c 142 -24 379 -26 531 -4 c 192 28 444 97 661 180 c 129 50 126 49 115 38 c -19 -20 -191 -111 -296 -156 c -273 -118 -585 -185 -876 -188 c -98 -1 -104 -2 -63 -11 c 70 -16 590 -16 680 0 c 197 36 354 86 498 162 c 39 20 72 36 72 33 c 0 -2 -30 -23 -67 -47 c -249 -160 -545 -248 -948 -282 l -90 -7 l 50 -10 c 28 -5 145 -10 260 -10 c 182 -1 224 2 315 22 c 135 29 281 77 406 135 c 54 25 88 37 74 26 c -43 -33 -220 -117 -330 -155 c -113 -39 -352 -101 -432 -111 c -90 -12 -34 -26 124 -31 c 129 -4 169 -2 254 16 c 126 26 229 60 367 121 c 59 27 107 47 107 44 c 0 -2 -30 -24 -67 -48 c -66 -44 -162 -85 -293 -126 l -65 -20 l 94 5 c 243 13 493 74 697 171 c 197 93 426 294 553 484 c 170 255 273 533 322 870 c 30 204 24 468 -15 615 c -108 415 -413 653 -923 720 c -142 19 -222 19 -113 0 z" stroke-linecap="round"/>
</g>
		<g transform="matrix(0.1333 0 0 -0.1333 25.5619 18.014)">
<path style="stroke: none; stroke-width: 1; stroke-dasharray: none; stroke-linecap: butt; stroke-dashoffset: 0; stroke-linejoin: miter; stroke-miterlimit: 4; is-custom-font: none; font-file-url: none; fill: rgb(0,0,0); fill-rule: nonzero; opacity: 1;" transform=" translate(-4031.9614, -2304.7238)" d="M 4910 2951 c -545 -245 -1128 -640 -1633 -1107 c -262 -241 -245 -223 -217 -224 c 14 0 142 11 284 25 c 173 16 263 28 271 37 c 6 7 60 70 118 140 c 281 334 663 686 1102 1015 c 99 75 182 139 183 144 c 7 17 -23 9 -108 -30 z" stroke-linecap="round"/>
</g>
</g>
</g>
</svg>